<?xml version="1.0" encoding="utf-8"?>
<!-- Generator: Adobe Illustrator 17.0.0, SVG Export Plug-In . SVG Version: 6.00 Build 0)  -->
<!DOCTYPE svg PUBLIC "-//W3C//DTD SVG 1.1//EN" "http://www.w3.org/Graphics/SVG/1.1/DTD/svg11.dtd">
<svg version="1.1" xmlns="http://www.w3.org/2000/svg" xmlns:xlink="http://www.w3.org/1999/xlink" x="0px" y="0px" width="512px"
	 height="512px" viewBox="0 0 512 512" enable-background="new 0 0 512 512" xml:space="preserve">
<g id="Layer_1">
	<circle fill="#231F20" cx="255.782" cy="256.061" r="247.279"/>
	<g>
		<path d="M170.862,88.997c0,0-0.167-0.092-0.167-0.092c-3.239,0.674-6.814,2.585-9.659,1.812
			c-14.093-3.829-25.324,0.807-35.365,10.332c-1.326,1.258-3.241,1.895-4.884,2.819c-0.517-0.932-1.034-1.864-1.551-2.796
			c9.962-6.062,19.925-12.125,30.199-18.377c-21.092-8.72-25.962-6.672-36.742,11.559c-5.617,9.5-13.191,17.839-19.794,26.765
			c-1.768,2.389-4.012,4.818-4.684,7.56c-3.464,14.135-7.342,28.253-9.424,42.617c-2.084,14.379-2.686,29.027-3.07,43.581
			c-0.346,13.114,0.455,26.259,0.842,39.388c0.038,1.283,0.358,2.872,1.16,3.77c9.758,10.927,6.558,23.537,5.087,36.042
			c-0.415,3.522,0.47,7.198,0.759,10.803c0.973,0.109,1.946,0.218,2.919,0.327c1.063-2.822,2.482-5.571,3.08-8.488
			c0.524-2.557-0.003-5.312,0.159-7.965c0.568-9.287,6.585-17.141,13.707-16.826c9.001,0.399,14.564,5.905,14.006,14.761
			c-0.633,10.042-1.742,20.474-5.153,29.82c-4.653,12.749-7.259,24.941-2.719,39.772c1.88-2.569,3.036-3.646,3.581-4.974
			c4.233-10.298,7.581-21.042,12.683-30.88c7.12-13.729,18.14-23.684,33.871-26.628c3.297-0.617,8.762,0.617,10.35,2.953
			c2.222,3.27,2.21,8.371,2.252,12.697c0.026,2.683-1.619,5.381-2.515,8.073c3.258,0.08,4.481-1.181,5.943-1.592
			c3.611-1.013,7.332-1.636,11.009-2.416c0.395,4.029,1.643,8.218,0.928,12.04c-0.627,3.349-3.628,6.197-5.284,9.419
			c-5.154,10.03-3.416,20.039-0.855,30.583c2.203-0.73,3.299-0.815,3.987-1.389c0.983-0.82,2.173-1.895,2.403-3.038
			c3.841-19.027,19.306-25.704,34.685-31.869c3.975-1.593,9.419-0.138,14.05,0.69c5.105,0.913,9.984,3.066,15.085,4.025
			c4.514,0.849,12.441-0.488,13.186,1.391c2.087,5.263,2.993,12.291,1.195,17.536c-4.145,12.089-5.571,23.634-1.52,35.968
			c1.143,3.48,0.276,7.81-0.339,11.642c-1.524,9.488-3.436,18.913-5.192,28.363c1.418,0.618,2.836,1.236,4.254,1.853
			c4.001-5.532,8.003-11.064,12.298-17.003c8.383,7.584,4.748,15.639,3.978,23.251c-0.797,7.883-2.154,15.747-2.335,23.64
			c-0.093,4.076,2.573,7.501,7.087,3.564c7.219-6.295,15.687-12.315,7.933-23.949c-1.495-2.243-1.958-6.079-1.247-8.739
			c4.387-16.427-0.336-31.893-3.5-47.784c-2.764-13.88-1.966-28.104,9.012-39.049c2.561-2.553,8.714-5.197,10.57-3.929
			c3.079,2.105,4.649,7.195,5.628,11.318c0.644,2.712-0.867,5.936-1.459,9.18c11.351-0.037,15.182-4.873,17.359-18.142
			c2.646-16.131,5.757-32.363,21.284-41.87c2.977-1.823,8.497-3.478,10.424-2.018c2.393,1.813,2.706,6.904,3.077,10.663
			c0.249,2.518-1.628,5.249-1.365,7.76c0.374,3.582,1.837,7.05,2.835,10.567c7.592-7.512,14.157-14.071,16.42-21.877
			c3.292-11.355,10.959-14.802,20.653-17.394c6.112-1.634,7.724,0.48,7.511,6.387c-0.365,10.105-0.101,20.232-0.101,30.35
			c0.993,0.271,1.985,0.541,2.978,0.812c1.899-4.575,4.088-9.053,5.639-13.743c3.802-11.493,5.602-24.013,11.285-34.443
			c12.349-22.661,6.23-35.31-6.364-47.41c-5.941-5.708-8.347-11.645-8.313-19.232c0.02-4.638,0.201-9.284,0.526-13.911
			c0.527-7.508-2.643-12.5-9.365-15.905c-4.664-2.362-11.056-4.69-12.829-8.725c-4.595-10.455-7.595-21.474-12.833-31.916
			c-4.215-8.403-6.937-12.606-16.223-10.19c-18.701,4.865-30.49-10.745-45.898-15.641c-1.519-0.483-2.264-3.88-3.074-6.035
			c-3.905-10.396-9.614-12.978-19.928-9.826c-3.862,1.18-8.714,2.079-12.257,0.776c-9.74-3.582-19.001-8.454-28.509-12.689
			c-2.694-1.2-6.469-3.617-8.241-2.666c-13.657,7.328-28.677-6.656-42.123,2.971c-1.136,0.813-4.279-1.143-6.477-1.854
			c-13.608-4.404-27.308-4.106-41.3,0.388C160.979,87.196,165.874,88.069,170.862,88.997z"/>
		<path fill="#FFFFFF" d="M170.769,88.942c-4.895-0.873-9.791-1.746-14.686-2.619c13.993-4.495,27.693-4.792,41.3-0.388
			c2.197,0.711,5.341,2.667,6.477,1.854c13.446-9.626,28.466,4.357,42.123-2.971c1.772-0.951,5.547,1.466,8.241,2.666
			c9.507,4.235,18.768,9.108,28.509,12.689c3.543,1.303,8.395,0.404,12.257-0.776c10.314-3.152,16.022-0.57,19.928,9.826
			c0.81,2.155,1.555,5.552,3.074,6.035c15.408,4.896,27.197,20.506,45.898,15.641c9.287-2.416,12.009,1.787,16.223,10.19
			c5.237,10.442,8.238,21.461,12.833,31.916c1.773,4.034,8.165,6.362,12.829,8.725c6.723,3.405,9.892,8.397,9.365,15.905
			c-0.325,4.627-0.505,9.272-0.526,13.911c-0.033,7.587,2.372,13.524,8.313,19.232c12.594,12.1,18.713,24.749,6.364,47.41
			c-5.684,10.43-7.484,22.95-11.285,34.443c-1.551,4.689-3.74,9.168-5.639,13.743c-0.993-0.271-1.985-0.541-2.978-0.812
			c0-10.118-0.265-20.246,0.101-30.35c0.214-5.907-1.399-8.021-7.511-6.387c-9.694,2.591-17.361,6.038-20.653,17.394
			c-2.263,7.806-8.828,14.365-16.42,21.877c-0.998-3.517-2.461-6.985-2.835-10.567c-0.262-2.511,1.614-5.243,1.365-7.76
			c-0.371-3.758-0.685-8.85-3.077-10.663c-1.927-1.46-7.447,0.195-10.424,2.018c-15.528,9.507-18.638,25.739-21.284,41.87
			c-2.177,13.269-6.008,18.105-17.359,18.142c0.592-3.244,2.103-6.468,1.459-9.18c-0.979-4.124-2.549-9.214-5.628-11.318
			c-1.855-1.268-8.009,1.376-10.57,3.929c-10.979,10.945-11.776,25.168-9.012,39.049c3.164,15.891,7.887,31.356,3.5,47.784
			c-0.71,2.66-0.247,6.496,1.247,8.739c7.754,11.635-0.714,17.655-7.933,23.949c-4.514,3.936-7.18,0.511-7.087-3.564
			c0.18-7.893,1.537-15.757,2.335-23.64c0.77-7.612,4.404-15.668-3.978-23.251c-4.295,5.938-8.297,11.47-12.298,17.003
			c-1.418-0.618-2.836-1.236-4.254-1.853c1.756-9.45,3.668-18.876,5.192-28.363c0.616-3.832,1.483-8.162,0.339-11.642
			c-4.051-12.334-2.625-23.879,1.52-35.968c1.798-5.245,0.892-12.273-1.195-17.536c-0.745-1.879-8.672-0.543-13.186-1.391
			c-5.101-0.959-9.98-3.112-15.085-4.025c-4.631-0.828-10.075-2.283-14.05-0.69c-15.379,6.165-30.844,12.842-34.685,31.869
			c-0.231,1.142-1.421,2.218-2.403,3.038c-0.688,0.574-1.785,0.659-3.987,1.389c-2.562-10.544-4.3-20.554,0.855-30.583
			c1.656-3.222,4.657-6.071,5.284-9.419c0.715-3.822-0.533-8.01-0.928-12.04c-3.677,0.78-7.398,1.403-11.009,2.416
			c-1.462,0.41-2.685,1.672-5.943,1.592c0.895-2.691,2.54-5.39,2.515-8.073c-0.042-4.326-0.03-9.426-2.252-12.697
			c-1.588-2.337-7.053-3.57-10.35-2.953c-15.731,2.945-26.751,12.899-33.871,26.628c-5.102,9.838-8.451,20.582-12.683,30.88
			c-0.546,1.328-1.702,2.406-3.581,4.974c-4.54-14.83-1.934-27.022,2.719-39.772c3.411-9.347,4.519-19.778,5.153-29.82
			c0.559-8.856-5.004-14.362-14.006-14.761c-7.122-0.316-13.139,7.538-13.707,16.826c-0.162,2.654,0.365,5.408-0.159,7.965
			c-0.598,2.917-2.018,5.666-3.08,8.488c-0.973-0.109-1.946-0.218-2.919-0.327c-0.289-3.605-1.174-7.28-0.759-10.803
			c1.472-12.505,4.672-25.115-5.087-36.042c-0.803-0.899-1.122-2.487-1.16-3.77c-0.387-13.129-1.187-26.274-0.842-39.388
			c0.384-14.553,0.986-29.202,3.07-43.581c2.082-14.364,5.96-28.482,9.424-42.617c0.672-2.742,2.917-5.171,4.684-7.56
			c6.604-8.927,14.177-17.265,19.794-26.765c10.779-18.231,15.649-20.279,36.742-11.559c-10.274,6.252-20.237,12.315-30.199,18.377
			c0.517,0.932,1.034,1.864,1.551,2.796c1.642-0.924,3.558-1.561,4.884-2.819c10.041-9.525,21.272-14.161,35.365-10.332
			c2.846,0.773,6.42-1.139,9.699-1.787c18.813,3.155,37.6,6.206,56.345,9.491c3.189,0.559,6.156,2.276,9.302,3.2
			c18.965,5.572,38.294,10.134,56.818,16.904c13.448,4.915,25.84,12.719,38.703,19.234c14.465,15.345,28.929,30.691,43.394,46.037
			c-7.906-12.487-16.968-24.069-27.04-34.694c-4.461-4.706-10.966-7.475-16.543-11.123c-0.502-1.164-0.675-2.9-1.555-3.404
			c-11.087-6.352-21.792-13.735-33.559-18.442c-14.999-5.999-30.786-10.128-46.403-14.45c-15.336-4.243-29.52-14.721-46.843-9.195
			c-0.907,0.289-2.28-1.363-3.488-1.46C190.174,90.244,180.47,89.617,170.769,88.942z M213.822,162.353
			c-3.274-12.046-9.585-8.189-16.354-5.159c-25.104,11.235-37.142,32.013-41.705,57.713c-3.055,17.21-2.775,34.52,7.41,49.889
			c5.725,8.639,12.184,16.791,19.243,26.435c-3.593-1.544-6.33-2.384-8.723-3.804c-12.255-7.277-24.768-14.196-36.512-22.232
			c-10.262-7.021-20.467-14.518-29.202-23.295c-16.914-16.995-15.819-40.062-17.843-61.634c-1.67-17.806,1.224-35.028,12.2-50.088
			c2.991-4.104,5.288-8.714,7.903-13.092c-13.223,11.716-22.131,26.407-23.4,43.557c-1.132,15.303,1.845,30.88,2.542,46.356
			c1.075,23.904,12.496,41.21,32.754,53.215c10.214,6.053,21.382,11.002,30.344,18.556c18.67,15.736,41.281,18.172,63.734,21.917
			c28.101,4.688,56.27,3.532,84.351,0.342c9.615-1.092,18.979-4.394,28.458-6.687c-0.225-0.914-0.449-1.829-0.674-2.743
			c-7.076,1.514-14.152,3.028-23.1,4.942c14.869-31.089,21.039-60.738,7.567-91.633c-4.705,1.217-9.078,2.349-13.451,3.48
			c-0.964-0.538-1.927-1.077-2.891-1.615c14.698-6.822,11.405-13.706,2.88-21.089c-5.193-4.497-9.488-10.047-14.766-14.425
			c-13.399-11.116-27.951-20.243-45.597-22.991C225.842,146.22,219.297,149.558,213.822,162.353z M121.707,184.991
			c0.673,0.083,1.347,0.166,2.02,0.25c2.623-3.835,5.217-7.69,7.874-11.502c5.385-7.729,3.629-12.809-5.386-15.48
			c-8.567-2.538-11.097-8.157-5.118-14.253c10.537-10.741,22.033-20.546,33.212-30.65c3.955-3.574,6.865-3.299,10.517,1.467
			c1.688,2.203,7.534,2.95,10.709,1.925c6.785-2.191,12.891-6.399,19.586-8.972c6.652-2.556,11.048-1.367,10.011,7.629
			c-0.218,1.893,4.018,6.247,5.891,6.075c6.063-0.556,11.981-2.691,17.955-4.217c-3.262-1.55-6.451-1.84-9.561-1.472
			c-3.355,0.398-6.636,1.413-10.128,2.198c0.352-13.678-4.158-17.698-16.912-13.704c-7.64,2.393-14.425,7.514-22.372,11.832
			c-3.031-6.769-7.018-10.875-14.695-6.558c-4.956,2.787-10.184,6.37-16.168,1.073c-0.729-0.645-4.348,1.912-6.564,3.104
			c-0.233,0.125-0.031,1.058-0.031,1.656c2.383-0.403,4.67-0.79,9.945-1.683c-3.083,5.77-4.369,9.84-6.982,12.697
			c-4.429,4.843-9.771,8.84-14.595,13.335c-10.533,9.815-8.91,17.187,4.766,21.816c6.422,2.174,7.544,5.144,2.885,10.73
			C125.543,175.909,123.943,180.716,121.707,184.991z M347.394,273.604c9.211,4.518,15.488,2.881,15.623-5.53
			c0.198-12.352,9.188-14.704,16.753-18.88c2.711-1.496,6.857-0.393,10.348-0.476c-0.542,3.277-0.067,7.317-1.837,9.671
			c-3.705,4.929-8.422,9.158-13.052,13.309c-3.109,2.787-6.781,4.946-10.202,7.386c16.646-4.711,28.234-15.13,31.685-31.791
			c3.468-16.741,1.12-33.033-10.625-46.886c5.726,14.657,11.516,29.246,6.643,43.283c-7.357,1.827-12.567,3.188-17.811,4.396
			c-2.649,0.61-5.362,0.943-8.046,1.402c-0.254-2.948-0.372-5.916-0.805-8.838c-0.346-2.339-0.361-5.742-1.803-6.657
			c-2.001-1.271-5.2-0.656-7.886-0.848c-0.088,0.771-0.176,1.542-0.265,2.314c2.487,0.492,4.975,0.985,7.293,1.444
			c-1.353,12.833-2.622,24.872-3.937,37.348c-15.084-4.221-16.705-3.239-17.238,8.524C344,279.635,345.543,276.894,347.394,273.604z
			"/>
		<path d="M213.822,162.353c5.475-12.796,12.02-16.133,25.169-14.086c17.647,2.747,32.198,11.875,45.597,22.991
			c5.278,4.378,9.573,9.928,14.766,14.425c8.525,7.383,11.818,14.267-2.88,21.089c0.964,0.538,1.927,1.077,2.891,1.615
			c4.373-1.132,8.747-2.263,13.451-3.48c13.473,30.895,7.302,60.543-7.567,91.633c8.948-1.914,16.024-3.428,23.1-4.942
			c0.225,0.914,0.449,1.829,0.674,2.743c-9.479,2.292-18.843,5.594-28.458,6.687c-28.081,3.19-56.251,4.346-84.351-0.342
			c-22.453-3.745-45.064-6.181-63.734-21.917c-8.962-7.554-20.13-12.503-30.344-18.556c-20.258-12.005-31.679-29.31-32.754-53.215
			c-0.696-15.477-3.674-31.053-2.542-46.356c1.269-17.149,10.177-31.841,23.4-43.557c-2.615,4.378-4.912,8.988-7.903,13.092
			c-10.976,15.06-13.87,32.282-12.2,50.088c2.023,21.572,0.929,44.639,17.843,61.634c8.734,8.776,18.94,16.273,29.202,23.295
			c11.744,8.036,24.258,14.955,36.512,22.232c2.393,1.421,5.13,2.261,8.723,3.804c-7.06-9.644-13.519-17.796-19.243-26.435
			c-10.185-15.369-10.465-32.679-7.41-49.889c4.563-25.7,16.601-46.478,41.705-57.713
			C204.237,154.164,210.548,150.307,213.822,162.353z M203.395,237.554c-1.733,9.413,2.399,18.142,10.245,24.439
			c10.14,8.137,20.172,18.814,35.269,13.079c15.229-5.786,25.73-16.622,27.792-33.281c1.895-15.306-4.688-27.089-16.454-37.28
			c-12.958-11.225-31.64-12.016-44.25-0.396C206.422,212.937,202.996,223.829,203.395,237.554z"/>
		<path d="M121.707,184.991c2.236-4.276,3.836-9.082,6.857-12.704c4.658-5.586,3.537-8.556-2.885-10.73
			c-13.676-4.63-15.298-12.001-4.766-21.816c4.824-4.496,10.166-8.492,14.595-13.335c2.613-2.857,3.899-6.927,6.982-12.697
			c-5.275,0.892-7.561,1.279-9.945,1.683c0-0.597-0.202-1.53,0.031-1.656c2.216-1.192,5.835-3.749,6.564-3.104
			c5.985,5.297,11.212,1.714,16.168-1.073c7.677-4.317,11.664-0.212,14.695,6.558c7.947-4.318,14.732-9.44,22.372-11.832
			c12.754-3.994,17.264,0.026,16.912,13.704c3.492-0.786,6.773-1.8,10.128-2.198c3.111-0.369,6.3-0.079,9.561,1.472
			c-5.974,1.526-11.892,3.661-17.955,4.217c-1.873,0.172-6.109-4.182-5.891-6.075c1.038-8.996-3.359-10.185-10.011-7.629
			c-6.695,2.573-12.802,6.781-19.586,8.972c-3.175,1.025-9.021,0.278-10.709-1.925c-3.652-4.766-6.562-5.041-10.517-1.467
			c-11.179,10.104-22.675,19.909-33.212,30.65c-5.98,6.096-3.449,11.714,5.118,14.253c9.015,2.671,10.771,7.752,5.386,15.48
			c-2.656,3.812-5.251,7.667-7.874,11.502C123.054,185.158,122.38,185.075,121.707,184.991z"/>
		<path d="M347.394,273.604c-1.852,3.29-3.394,6.031-5.16,9.169c0.534-11.763,2.155-12.745,17.238-8.524
			c1.315-12.476,2.584-24.515,3.937-37.348c-2.318-0.459-4.806-0.951-7.293-1.444c0.088-0.771,0.176-1.542,0.265-2.314
			c2.686,0.192,5.885-0.423,7.886,0.848c1.442,0.915,1.457,4.318,1.803,6.657c0.432,2.922,0.551,5.89,0.805,8.838
			c2.684-0.458,5.397-0.792,8.046-1.402c5.245-1.208,10.454-2.568,17.811-4.396c4.874-14.037-0.916-28.626-6.643-43.283
			c11.744,13.853,14.093,30.145,10.625,46.886c-3.451,16.661-15.04,27.081-31.685,31.791c3.42-2.44,7.093-4.598,10.202-7.386
			c4.63-4.15,9.347-8.38,13.052-13.309c1.769-2.354,1.295-6.395,1.837-9.671c-3.491,0.083-7.637-1.02-10.348,0.476
			c-7.565,4.176-16.555,6.528-16.753,18.88C362.882,276.485,356.605,278.121,347.394,273.604z"/>
		<path d="M331.902,137.76c-12.863-6.516-25.255-14.32-38.702-19.235c-18.524-6.77-37.853-11.332-56.818-16.904
			c-3.145-0.924-6.113-2.641-9.302-3.2c-18.746-3.286-37.532-6.336-56.345-9.491c-0.04-0.025,0.127,0.067,0.081,0.039
			c9.654,0.647,19.359,1.274,29.05,2.058c1.209,0.098,2.581,1.75,3.488,1.46c17.323-5.526,31.507,4.952,46.843,9.195
			c15.617,4.321,31.405,8.451,46.403,14.45c11.768,4.707,22.473,12.09,33.559,18.442c0.88,0.504,1.053,2.241,1.555,3.404
			L331.902,137.76z"/>
		<path d="M331.714,137.979c5.577,3.648,12.082,6.417,16.543,11.123c10.072,10.625,19.134,22.207,27.04,34.694
			c-14.464-15.346-28.929-30.692-43.394-46.037C331.902,137.76,331.714,137.979,331.714,137.979z"/>
		<path fill="#FFFFFF" d="M203.395,237.554c-0.399-13.725,3.027-24.617,12.601-33.44c12.61-11.62,31.292-10.829,44.25,0.396
			c11.765,10.192,18.349,21.974,16.454,37.28c-2.062,16.659-12.563,27.496-27.792,33.281c-15.097,5.736-25.129-4.941-35.269-13.079
			C205.794,255.696,201.662,246.967,203.395,237.554z M267.8,237.291c0.267-18.689-13.404-35.447-29.203-35.797
			c-14.859-0.329-29.047,15.821-29.283,33.335c-0.251,18.641,12.013,31.244,30.876,31.729
			C255.097,266.941,267.566,253.724,267.8,237.291z"/>
		<path d="M267.8,237.291c-0.235,16.434-12.704,29.651-27.611,29.267c-18.863-0.485-31.127-13.088-30.876-31.729
			c0.236-17.513,14.424-33.664,29.283-33.335C254.396,201.844,268.067,218.601,267.8,237.291z M259.225,240.223
			c-3.436-3.263-5.292-5.933-7.823-6.999c-1.073-0.452-5.339,3.11-5.11,3.737c1.126,3.084,3.273,5.795,5.06,8.638
			C253.488,244.141,255.625,242.682,259.225,240.223z"/>
		<path fill="#FFFFFF" d="M259.225,240.223c-3.6,2.459-5.737,3.918-7.873,5.376c-1.787-2.843-3.935-5.554-5.06-8.638
			c-0.229-0.627,4.037-4.189,5.11-3.737C253.933,234.291,255.789,236.961,259.225,240.223z"/>
	</g>
</g>
<g id="nyt_x5F_png_x5F_info" display="none">
	<text display="inline"><tspan x="0" y="0" font-family="'MyriadPro-Regular'" font-size="12">&lt;nyt_prefs&gt;</tspan><tspan x="0" y="14.4" font-family="'MyriadPro-Regular'" font-size="12">  &lt;nyt_prefix&gt;&lt;/nyt_prefix&gt;</tspan><tspan x="0" y="28.8" font-family="'MyriadPro-Regular'" font-size="12">  &lt;nyt_path&gt;~/Documents/ClientFiles/KeithRatner/tdv/src/png&lt;/nyt_path&gt;</tspan><tspan x="0" y="43.2" font-family="'MyriadPro-Regular'" font-size="12">&lt;/nyt_prefs&gt;</tspan></text>
</g>
</svg>
